<svg width="818" height="757" viewBox="0 0 818 757" fill="none" xmlns="http://www.w3.org/2000/svg">
<g clip-path="url(#clip0_1146_4089)">
<path d="M136.333 588.778H681.667L511.25 378.5L374.917 546.722L272.667 420.556L136.333 588.778ZM0 757V0H818V757H0ZM249.944 294.389C268.88 294.389 284.982 288.263 298.252 276.011C311.522 263.758 318.141 248.857 318.111 231.306C318.081 213.754 311.461 198.867 298.252 186.643C285.043 174.418 268.94 168.278 249.944 168.222C230.949 168.166 214.861 174.306 201.682 186.643C188.504 198.979 181.869 213.867 181.778 231.306C181.687 248.745 188.322 263.646 201.682 276.011C215.043 288.375 231.13 294.501 249.944 294.389Z" fill="#BCBCBC"/>
<path d="M249.944 294.389C268.88 294.389 284.982 288.263 298.252 276.011C311.522 263.758 318.141 248.857 318.111 231.306C318.081 213.754 311.461 198.867 298.252 186.643C285.043 174.418 268.94 168.278 249.944 168.222C230.949 168.166 214.861 174.306 201.682 186.643C188.504 198.979 181.869 213.867 181.778 231.306C181.687 248.745 188.322 263.646 201.682 276.011C215.043 288.375 231.13 294.501 249.944 294.389Z" fill="white"/>
<path d="M136.333 588.778H681.667L511.25 378.5L374.917 546.722L272.667 420.556L136.333 588.778Z" fill="white"/>
</g>
<rect x="0.5" y="0.5" width="817" height="756" stroke="black"/>
<defs>
<clipPath id="clip0_1146_4089">
<rect width="818" height="757" fill="white"/>
</clipPath>
</defs>
</svg>
